<svg id="_x33_0" enable-background="new 0 0 62 62.383" height="512" viewBox="0 0 62 62.383" width="512" xmlns="http://www.w3.org/2000/svg"><g><g><g><circle cx="47" cy="27.383" fill="#b4dd7f" r="6"/></g><g><path d="m51.57 31.263c-.01.02-.02.03-.04.05-1.1 1.27-2.72 2.07-4.53 2.07s-3.43-.8-4.53-2.07c-.65-.75-1.12-1.66-1.33-2.66-.09-.41-.14-.83-.14-1.27 0-1.66.67-3.16 1.76-4.24 1.04-1.05 2.46-1.7 4.04-1.75.05 0 .1-.01.15-.01-6.51-10.99-15.95-20-15.95-20s-3.34 3.18-7.41 8.08c.82.23 1.41.98 1.41 1.87 0 .66-.33 1.27-.87 1.63l-.96.64c-.69.46-.99 1.33-.73 2.11l.47 1.41c.06.17.09.35.09.54 0 .95-.77 1.72-1.72 1.72h-2.14c-.7 0-1.34.39-1.65 1.02l-.98 1.96c-.31.62-.95 1.02-1.66 1.02l-.83-.21v.01c-2.55 4.63-4.48 9.53-4.92 14.2 1.06.06 1.9.93 1.9 2 0 1.1-.9 2-2 2v4c1.1 0 2.1.45 2.83 1.17.72.73 1.17 1.73 1.17 2.83 0 .7-.18 1.35-.49 1.92 3.92 6.07 10.73 10.08 18.49 10.08 12.15 0 22-9.85 22-22 0-2.64-.53-5.38-1.43-8.12z" fill="#ff826e"/></g><g><path d="m37.32 40.223c2.19 1.18 3.68 3.5 3.68 6.16 0 3.87-3.13 7-7 7s-7-3.13-7-7c0-.35.03-.7.08-1.04.31.03.61.04.92.04 3.93 0 7.38-2.06 9.32-5.16z" fill="#fc6e51"/></g><g><path d="m38.8 36.483c3.67 1.78 6.2 5.54 6.2 9.9 0 6.08-4.92 11-11 11-5.21 0-9.57-3.62-10.71-8.48-.19-.81-.29-1.65-.29-2.52 0-.72.07-1.42.2-2.1 1.19.58 2.5.95 3.88 1.06-.05.34-.08.69-.08 1.04 0 3.87 3.13 7 7 7s7-3.13 7-7c0-2.66-1.49-4.98-3.68-6.16.71-1.13 1.22-2.39 1.48-3.74z" fill="#e9573f"/></g><g><circle cx="28" cy="34.383" fill="#e9573f" r="11"/></g><g><circle cx="28" cy="34.383" fill="#fc6e51" r="7"/></g><g><path d="m21 47.383c.96 0 1.77.69 1.96 1.6.03.13.04.26.04.4 0 1.1-.9 2-2 2s-2-.9-2-2 .9-2 2-2z" fill="#b4dd7f"/></g><g><circle cx="9" cy="59.383" fill="#b4dd7f" r="2"/></g><g><path d="m13 49.383c0 .7-.18 1.35-.49 1.92-.68 1.24-2 2.08-3.51 2.08-2.21 0-4-1.79-4-4s1.79-4 4-4c1.1 0 2.1.45 2.83 1.17.72.73 1.17 1.73 1.17 2.83z" fill="#b4dd7f"/></g><g><path d="m11 39.383c0 1.1-.9 2-2 2s-2-.9-2-2 .9-2 2-2h.1c1.06.06 1.9.93 1.9 2z" fill="#b4dd7f"/></g><g><circle cx="3" cy="29.383" fill="#b4dd7f" r="2"/></g><g><circle cx="43" cy="3.383" fill="#b4dd7f" r="2"/></g><g><circle cx="57" cy="11.383" fill="#b4dd7f" r="2"/></g><g><circle cx="55" cy="59.383" fill="#b4dd7f" r="2"/></g><g><circle cx="59" cy="27.383" fill="#b4dd7f" r="2"/></g><g><circle cx="47" cy="39.383" fill="#b4dd7f" r="2"/></g><g><circle cx="47" cy="15.383" fill="#b4dd7f" r="2"/></g><g><path d="m37 27.383c0 .2-.03.38-.08.56-.25.83-1.02 1.44-1.92 1.44-1.1 0-2-.9-2-2 0-.9.61-1.67 1.44-1.92.18-.05.36-.08.56-.08 1.1 0 2 .9 2 2z" fill="#b4dd7f"/></g><g><path d="m16.51 22.363c-.31.62-.95 1.02-1.66 1.02l-.83-.21c-.6-.29-1.02-.92-1.02-1.64v-1.6c0-1.25-1.23-2.14-2.42-1.74l-3.32 1.1c-.17.06-.35.09-.54.09-.95 0-1.72-.77-1.72-1.72v-.31c0-.6.32-1.16.84-1.47l2.8-1.69c.63-.37.66-1.28.05-1.69l-1.11-.73c-.36-.24-.58-.65-.58-1.09 0-.72.58-1.3 1.3-1.3h4.86c1.02 0 1.84-.82 1.84-1.84v-.31c0-1.02.83-1.85 1.85-1.85.71 0 1.35.4 1.66 1.02l.98 1.96c.31.63.95 1.02 1.65 1.02h1.91c.19 0 .37.03.54.08.82.23 1.41.98 1.41 1.87 0 .66-.33 1.27-.87 1.63l-.96.64c-.69.46-.99 1.33-.73 2.11l.47 1.41c.06.17.09.35.09.54 0 .95-.77 1.72-1.72 1.72h-2.14c-.7 0-1.34.39-1.65 1.02z" fill="#a0d468"/></g><g><path d="m51 31.383c-1.1 0-2-.9-2-2s.9-2 2-2c.85 0 1.57.53 1.86 1.27-.21.98-.66 1.87-1.29 2.61-.01.02-.02.03-.04.05-.17.04-.34.07-.53.07z" fill="#a0d468"/></g><g><path d="m46.95 21.383h.05c.07 0 .14 0 .2.01 1.01.1 1.8.96 1.8 1.99 0 1.1-.9 2-2 2s-2-.9-2-2c0-1.03.79-1.89 1.8-1.99.05 0 .1-.01.15-.01z" fill="#a0d468"/></g><g><path d="m45 29.383c0 1.1-.9 2-2 2-.19 0-.36-.03-.53-.07-.65-.75-1.12-1.66-1.33-2.66.29-.74 1.01-1.27 1.86-1.27 1.1 0 2 .9 2 2z" fill="#a0d468"/></g></g><g><path d="m43 6.383c1.654 0 3-1.346 3-3s-1.346-3-3-3-3 1.346-3 3 1.346 3 3 3zm0-4c.551 0 1 .448 1 1s-.449 1-1 1-1-.448-1-1 .449-1 1-1z"/><path d="m3 32.383c1.654 0 3-1.346 3-3s-1.346-3-3-3-3 1.346-3 3 1.346 3 3 3zm0-4c.551 0 1 .448 1 1s-.449 1-1 1-1-.448-1-1 .449-1 1-1z"/><path d="m57 14.383c1.654 0 3-1.346 3-3s-1.346-3-3-3-3 1.346-3 3 1.346 3 3 3zm0-4c.551 0 1 .448 1 1s-.449 1-1 1-1-.448-1-1 .449-1 1-1z"/><path d="m59 24.383c-1.302 0-2.402.839-2.816 2h-2.264c-.17-1.183-.636-2.269-1.322-3.184l2.109-2.109-1.414-1.414-2.108 2.109c-.915-.686-2.001-1.152-3.185-1.322v-2.264c1.161-.414 2-1.514 2-2.816 0-1.654-1.346-3-3-3-1.558 0-2.827 1.198-2.972 2.719-5.881-8.239-12.26-14.369-12.338-14.443l-.69-.659-.69.659c-.134.128-3.235 3.102-7.132 7.737-.045-.002-.087-.013-.132-.013h-1.908c-.32 0-.609-.178-.752-.465l-.979-1.957c-.487-.974-1.465-1.578-2.553-1.578-1.574 0-2.854 1.28-2.854 2.854v.305c0 .464-.377.841-.84.841h-4.857c-1.27 0-2.303 1.033-2.303 2.303 0 .772.383 1.488 1.025 1.916l1.105.737-2.809 1.685c-.815.488-1.321 1.382-1.321 2.333v.305c0 1.5 1.221 2.721 2.721 2.721.29 0 .577-.046.861-.14l3.313-1.104c.26-.085.536-.043.757.115.221.16.348.409.348.683v1.592c0 .74.29 1.409.753 1.916-2.517 4.724-4.044 9.109-4.55 13.059-1.266.351-2.203 1.502-2.203 2.879 0 1.302.839 2.402 2 2.816v2.285c-1.956.399-3.5 1.943-3.899 3.899h-4.101v2h4.101c.399 1.956 1.943 3.5 3.899 3.899v2.285c-1.161.414-2 1.514-2 2.816 0 1.654 1.346 3 3 3s3-1.346 3-3c0-1.302-.839-2.402-2-2.816v-2.285c.942-.192 1.783-.656 2.453-1.298 4.332 5.909 11.166 9.399 18.547 9.399 12.682 0 23-10.317 23-23 0-2.447-.457-5.111-1.328-7.915.646-.894 1.083-1.945 1.248-3.085h2.264c.414 1.161 1.514 2 2.816 2 1.654 0 3-1.346 3-3s-1.346-3-3-3zm-8.017 5.989c-.515-.023-.983-.446-.983-.989 0-.552.449-1 1-1 .313 0 .597.142.783.377-.171.59-.439 1.133-.8 1.612zm.93-3.848c-.289-.091-.596-.141-.913-.141-1.654 0-3 1.346-3 3 0 1.004.5 1.89 1.26 2.435-.682.349-1.443.565-2.26.565s-1.578-.216-2.26-.565c.76-.545 1.26-1.43 1.26-2.435 0-1.654-1.346-3-3-3-.317 0-.624.049-.913.141.222-1.271.926-2.369 1.916-3.117.013 1.643 1.351 2.976 2.998 2.976s2.985-1.333 2.998-2.976c.989.748 1.692 1.845 1.914 3.117zm-7.866 13.328c-1.041-1.602-2.457-2.961-4.159-3.923.067-.508.112-1.021.112-1.546 0-2.132-.559-4.181-1.614-6h1.693c.441 3.059 2.861 5.479 5.92 5.92v2.264c-1.161.414-2 1.514-2 2.816.001.16.024.315.048.469zm-10.047-5.469c0 3.309-2.691 6-6 6s-6-2.691-6-6 2.691-6 6-6 6 2.691 6 6zm0-7c0-.552.449-1 1-1s1 .448 1 1-.449 1-1 1-1-.448-1-1zm-1.991.088c-1.18-.687-2.547-1.088-4.009-1.088-4.411 0-8 3.589-8 8s3.589 8 8 8 8-3.589 8-8c0-1.462-.401-2.829-1.088-4.009.03.001.058.009.088.009.7 0 1.337-.251 1.848-.655.754 1.428 1.152 3.012 1.152 4.655 0 5.514-4.486 10-10 10s-10-4.486-10-10 4.486-10 10-10c1.643 0 3.228.398 4.655 1.152-.404.511-.655 1.147-.655 1.848 0 .03.008.058.009.088zm7.991 18.912c0 3.309-2.691 6-6 6s-6-2.691-6-6c3.918 0 7.393-1.896 9.584-4.809 1.507 1.123 2.416 2.896 2.416 4.809zm-15.967-.688c.638.224 1.299.395 1.981.51-.002.059-.014.118-.014.178 0 4.411 3.589 8 8 8s8-3.589 8-8c0-2.602-1.262-5.01-3.346-6.502.311-.6.578-1.225.785-1.878 2.802 1.829 4.561 4.99 4.561 8.38 0 5.514-4.486 10-10 10s-10-4.486-10-10c0-.23.017-.459.033-.688zm18.985-15.321c-.361-.479-.63-1.023-.801-1.614.186-.235.47-.377.783-.377.551 0 1 .448 1 1 0 .542-.465.97-.982.991zm4.982 9.009c0 .552-.449 1-1 1s-1-.448-1-1 .449-1 1-1 1 .448 1 1zm0-16c0 .552-.449 1-1 1s-1-.448-1-1 .449-1 1-1 1 .448 1 1zm-1-9c.551 0 1 .448 1 1s-.449 1-1 1-1-.448-1-1 .449-1 1-1zm-16-11.596c2.171 2.178 9.022 9.327 14.299 17.814-.912.229-1.752.636-2.483 1.184l-2.108-2.109-1.414 1.414 2.109 2.109c-.686.915-1.151 2.001-1.322 3.184h-2.264c-.414-1.161-1.514-2-2.816-2-.113 0-.221.021-.331.033-1.977-1.326-4.27-2.033-6.669-2.033-6.617 0-12 5.383-12 12 0 4.477 2.469 8.383 6.113 10.445-.068.515-.114 1.034-.114 1.555 0 .063.008.124.009.187-.317-.114-.654-.187-1.009-.187-1.302 0-2.402.839-2.816 2h-4.285c-.13-.637-.384-1.228-.732-1.753l3.126-3.127-1.414-1.414-3.126 3.127c-.525-.348-1.116-.602-1.753-.732v-2.285c1.161-.414 2-1.514 2-2.816 0-1.226-.741-2.28-1.797-2.744.491-3.688 1.945-7.812 4.334-12.288.106.012.209.032.318.032 1.088 0 2.066-.604 2.553-1.578l.979-1.957c.143-.287.432-.465.752-.465h2.142c1.5 0 2.721-1.221 2.721-2.721 0-.294-.047-.584-.14-.86l-.467-1.4c-.119-.359.017-.756.331-.966l.96-.641c.822-.549 1.314-1.468 1.314-2.458 0-.83-.347-1.578-.9-2.115 2.596-3.055 4.824-5.357 5.9-6.435zm-9 46.596c0 .552-.449 1-1 1s-1-.448-1-1 .449-1 1-1 1 .448 1 1zm-10.831-32.29c-.303 0-.608.049-.908.149l-3.308 1.103c-.474.156-.953-.208-.953-.683v-.305c0-.252.134-.488.35-.618l2.81-1.686c.591-.355.954-.979.97-1.668s-.316-1.329-.89-1.712l-1.105-.736c-.085-.056-.135-.15-.135-.251 0-.167.136-.303.303-.303h4.857c1.566 0 2.84-1.274 2.84-2.841v-.305c0-.471.383-.854.854-.854.326 0 .619.181.764.473l.979 1.957c.484.969 1.458 1.57 2.541 1.57h1.908c.526 0 .954.428.954.954 0 .319-.159.616-.425.794l-.96.641c-1.063.708-1.523 2.049-1.12 3.262l.468 1.402c.024.071.037.15.037.226 0 .397-.323.721-.721.721h-2.142c-1.083 0-2.057.602-2.541 1.57l-.979 1.957c-.146.292-.438.473-.764.473-.471 0-.854-.384-.854-.854v-1.592c0-.925-.43-1.765-1.18-2.305-.493-.356-1.066-.539-1.65-.539zm-2.169 21.29c.551 0 1 .448 1 1s-.449 1-1 1-1-.448-1-1 .449-1 1-1zm0 22c-.551 0-1-.448-1-1s.449-1 1-1 1 .448 1 1-.449 1-1 1zm0-8c-1.654 0-3-1.346-3-3s1.346-3 3-3 3 1.346 3 3-1.346 3-3 3zm22 8c-6.985 0-13.428-3.429-17.353-9.187.103-.263.194-.531.252-.813h4.285c.414 1.161 1.514 2 2.816 2 .842 0 1.602-.352 2.148-.913 1.919 4.077 6.056 6.913 10.852 6.913 6.617 0 12-5.383 12-12 0-1.673-.359-3.301-1.013-4.791.533.486 1.236.791 2.013.791 1.654 0 3-1.346 3-3 0-1.302-.839-2.402-2-2.816v-2.264c1.129-.163 2.17-.592 3.059-1.228.614 2.235.941 4.356.941 6.308 0 11.579-9.42 21-21 21zm28-32c-.551 0-1-.448-1-1s.449-1 1-1 1 .448 1 1-.449 1-1 1z"/><path d="m55 56.383c-1.654 0-3 1.346-3 3s1.346 3 3 3 3-1.346 3-3-1.346-3-3-3zm0 4c-.551 0-1-.448-1-1s.449-1 1-1 1 .448 1 1-.449 1-1 1z"/></g></g></svg>